<mxfile host="app.diagrams.net" modified="2023-07-25T13:27:25.527Z" agent="Mozilla/5.0 (Macintosh; Intel Mac OS X 10_15_7) AppleWebKit/537.36 (KHTML, like Gecko) Chrome/114.0.0.0 Safari/537.36" etag="ZElZhbhhSMcf7D3V9O09" version="21.6.5" type="github">
  <diagram id="C5RBs43oDa-KdzZeNtuy" name="Page-1">
    <mxGraphModel dx="2074" dy="1188" grid="1" gridSize="10" guides="1" tooltips="1" connect="1" arrows="1" fold="1" page="1" pageScale="1" pageWidth="827" pageHeight="1169" math="0" shadow="0">
      <root>
        <mxCell id="WIyWlLk6GJQsqaUBKTNV-0" />
        <mxCell id="WIyWlLk6GJQsqaUBKTNV-1" parent="WIyWlLk6GJQsqaUBKTNV-0" />
        <mxCell id="WIyWlLk6GJQsqaUBKTNV-2" value="" style="rounded=0;html=1;jettySize=auto;orthogonalLoop=1;fontSize=11;endArrow=block;endFill=0;endSize=8;strokeWidth=1;shadow=0;labelBackgroundColor=none;edgeStyle=orthogonalEdgeStyle;" parent="WIyWlLk6GJQsqaUBKTNV-1" source="WIyWlLk6GJQsqaUBKTNV-3" target="WIyWlLk6GJQsqaUBKTNV-6" edge="1">
          <mxGeometry relative="1" as="geometry" />
        </mxCell>
        <mxCell id="WIyWlLk6GJQsqaUBKTNV-3" value="Start" style="rounded=1;whiteSpace=wrap;html=1;fontSize=12;glass=0;strokeWidth=1;shadow=0;" parent="WIyWlLk6GJQsqaUBKTNV-1" vertex="1">
          <mxGeometry x="160" y="80" width="120" height="40" as="geometry" />
        </mxCell>
        <mxCell id="WIyWlLk6GJQsqaUBKTNV-4" value="Yes" style="rounded=0;html=1;jettySize=auto;orthogonalLoop=1;fontSize=11;endArrow=block;endFill=0;endSize=8;strokeWidth=1;shadow=0;labelBackgroundColor=none;edgeStyle=orthogonalEdgeStyle;" parent="WIyWlLk6GJQsqaUBKTNV-1" source="WIyWlLk6GJQsqaUBKTNV-6" target="WIyWlLk6GJQsqaUBKTNV-10" edge="1">
          <mxGeometry y="20" relative="1" as="geometry">
            <mxPoint as="offset" />
          </mxGeometry>
        </mxCell>
        <mxCell id="WIyWlLk6GJQsqaUBKTNV-5" value="No" style="edgeStyle=orthogonalEdgeStyle;rounded=0;html=1;jettySize=auto;orthogonalLoop=1;fontSize=11;endArrow=block;endFill=0;endSize=8;strokeWidth=1;shadow=0;labelBackgroundColor=none;fillColor=#f8cecc;strokeColor=#b85450;" parent="WIyWlLk6GJQsqaUBKTNV-1" source="WIyWlLk6GJQsqaUBKTNV-6" target="WIyWlLk6GJQsqaUBKTNV-7" edge="1">
          <mxGeometry y="10" relative="1" as="geometry">
            <mxPoint as="offset" />
          </mxGeometry>
        </mxCell>
        <mxCell id="WIyWlLk6GJQsqaUBKTNV-6" value="Parse Env" style="rhombus;whiteSpace=wrap;html=1;shadow=0;fontFamily=Helvetica;fontSize=12;align=center;strokeWidth=1;spacing=6;spacingTop=-4;" parent="WIyWlLk6GJQsqaUBKTNV-1" vertex="1">
          <mxGeometry x="170" y="170" width="100" height="80" as="geometry" />
        </mxCell>
        <mxCell id="xBd6NsXR3ONYyBGVKeEP-34" style="edgeStyle=orthogonalEdgeStyle;rounded=0;orthogonalLoop=1;jettySize=auto;html=1;fontFamily=Helvetica;fontSize=12;fontColor=default;fillColor=#f8cecc;strokeColor=#b85450;" parent="WIyWlLk6GJQsqaUBKTNV-1" source="WIyWlLk6GJQsqaUBKTNV-7" target="xBd6NsXR3ONYyBGVKeEP-28" edge="1">
          <mxGeometry relative="1" as="geometry" />
        </mxCell>
        <mxCell id="WIyWlLk6GJQsqaUBKTNV-7" value="" style="rounded=1;whiteSpace=wrap;html=1;fontSize=12;glass=0;strokeWidth=1;shadow=0;" parent="WIyWlLk6GJQsqaUBKTNV-1" vertex="1">
          <mxGeometry x="320" y="190" width="120" height="40" as="geometry" />
        </mxCell>
        <mxCell id="WIyWlLk6GJQsqaUBKTNV-8" value="Yes" style="rounded=0;html=1;jettySize=auto;orthogonalLoop=1;fontSize=11;endArrow=block;endFill=0;endSize=8;strokeWidth=1;shadow=0;labelBackgroundColor=none;edgeStyle=orthogonalEdgeStyle;" parent="WIyWlLk6GJQsqaUBKTNV-1" source="WIyWlLk6GJQsqaUBKTNV-10" edge="1">
          <mxGeometry x="0.3333" y="20" relative="1" as="geometry">
            <mxPoint as="offset" />
            <mxPoint x="220" y="430" as="targetPoint" />
          </mxGeometry>
        </mxCell>
        <mxCell id="WIyWlLk6GJQsqaUBKTNV-9" value="No" style="edgeStyle=orthogonalEdgeStyle;rounded=0;html=1;jettySize=auto;orthogonalLoop=1;fontSize=11;endArrow=block;endFill=0;endSize=8;strokeWidth=1;shadow=0;labelBackgroundColor=none;fillColor=#f8cecc;strokeColor=#b85450;" parent="WIyWlLk6GJQsqaUBKTNV-1" source="WIyWlLk6GJQsqaUBKTNV-10" target="WIyWlLk6GJQsqaUBKTNV-12" edge="1">
          <mxGeometry y="10" relative="1" as="geometry">
            <mxPoint as="offset" />
          </mxGeometry>
        </mxCell>
        <mxCell id="WIyWlLk6GJQsqaUBKTNV-10" value="Parse Arg" style="rhombus;whiteSpace=wrap;html=1;shadow=0;fontFamily=Helvetica;fontSize=12;align=center;strokeWidth=1;spacing=6;spacingTop=-4;" parent="WIyWlLk6GJQsqaUBKTNV-1" vertex="1">
          <mxGeometry x="170" y="290" width="100" height="80" as="geometry" />
        </mxCell>
        <mxCell id="xBd6NsXR3ONYyBGVKeEP-35" style="edgeStyle=orthogonalEdgeStyle;rounded=0;orthogonalLoop=1;jettySize=auto;html=1;fontFamily=Helvetica;fontSize=12;fontColor=default;fillColor=#f8cecc;strokeColor=#b85450;" parent="WIyWlLk6GJQsqaUBKTNV-1" source="WIyWlLk6GJQsqaUBKTNV-12" target="xBd6NsXR3ONYyBGVKeEP-28" edge="1">
          <mxGeometry relative="1" as="geometry" />
        </mxCell>
        <mxCell id="WIyWlLk6GJQsqaUBKTNV-12" value="" style="rounded=1;whiteSpace=wrap;html=1;fontSize=12;glass=0;strokeWidth=1;shadow=0;" parent="WIyWlLk6GJQsqaUBKTNV-1" vertex="1">
          <mxGeometry x="320" y="310" width="120" height="40" as="geometry" />
        </mxCell>
        <mxCell id="xBd6NsXR3ONYyBGVKeEP-9" value="" style="edgeStyle=orthogonalEdgeStyle;rounded=0;orthogonalLoop=1;jettySize=auto;html=1;fillColor=#f8cecc;strokeColor=#b85450;" parent="WIyWlLk6GJQsqaUBKTNV-1" source="xBd6NsXR3ONYyBGVKeEP-0" target="xBd6NsXR3ONYyBGVKeEP-8" edge="1">
          <mxGeometry relative="1" as="geometry" />
        </mxCell>
        <mxCell id="xBd6NsXR3ONYyBGVKeEP-10" value="No" style="edgeLabel;html=1;align=center;verticalAlign=middle;resizable=0;points=[];" parent="xBd6NsXR3ONYyBGVKeEP-9" vertex="1" connectable="0">
          <mxGeometry x="-0.1209" y="2" relative="1" as="geometry">
            <mxPoint as="offset" />
          </mxGeometry>
        </mxCell>
        <mxCell id="xBd6NsXR3ONYyBGVKeEP-17" value="" style="edgeStyle=orthogonalEdgeStyle;rounded=0;orthogonalLoop=1;jettySize=auto;html=1;fontFamily=Helvetica;fontSize=12;fontColor=default;" parent="WIyWlLk6GJQsqaUBKTNV-1" source="xBd6NsXR3ONYyBGVKeEP-0" target="xBd6NsXR3ONYyBGVKeEP-16" edge="1">
          <mxGeometry relative="1" as="geometry" />
        </mxCell>
        <mxCell id="xBd6NsXR3ONYyBGVKeEP-0" value="Open Redirections" style="rhombus;whiteSpace=wrap;html=1;shadow=0;fontFamily=Helvetica;fontSize=12;align=center;strokeWidth=1;spacing=6;spacingTop=-4;" parent="WIyWlLk6GJQsqaUBKTNV-1" vertex="1">
          <mxGeometry x="170" y="430" width="100" height="80" as="geometry" />
        </mxCell>
        <mxCell id="xBd6NsXR3ONYyBGVKeEP-6" value="" style="edgeStyle=orthogonalEdgeStyle;rounded=0;orthogonalLoop=1;jettySize=auto;html=1;" parent="WIyWlLk6GJQsqaUBKTNV-1" target="xBd6NsXR3ONYyBGVKeEP-5" edge="1">
          <mxGeometry relative="1" as="geometry">
            <mxPoint x="220" y="669.9999999999998" as="sourcePoint" />
          </mxGeometry>
        </mxCell>
        <mxCell id="xBd6NsXR3ONYyBGVKeEP-12" value="" style="edgeStyle=orthogonalEdgeStyle;rounded=0;orthogonalLoop=1;jettySize=auto;html=1;fillColor=#f8cecc;strokeColor=#b85450;" parent="WIyWlLk6GJQsqaUBKTNV-1" target="xBd6NsXR3ONYyBGVKeEP-11" edge="1">
          <mxGeometry relative="1" as="geometry">
            <mxPoint x="260" y="630" as="sourcePoint" />
          </mxGeometry>
        </mxCell>
        <mxCell id="xBd6NsXR3ONYyBGVKeEP-5" value="Finish" style="rounded=1;whiteSpace=wrap;html=1;shadow=0;strokeWidth=1;spacing=6;spacingTop=-4;" parent="WIyWlLk6GJQsqaUBKTNV-1" vertex="1">
          <mxGeometry x="160" y="840" width="120" height="60" as="geometry" />
        </mxCell>
        <mxCell id="xBd6NsXR3ONYyBGVKeEP-26" value="" style="edgeStyle=orthogonalEdgeStyle;rounded=0;orthogonalLoop=1;jettySize=auto;html=1;fontFamily=Helvetica;fontSize=12;fontColor=default;" parent="WIyWlLk6GJQsqaUBKTNV-1" source="xBd6NsXR3ONYyBGVKeEP-8" target="xBd6NsXR3ONYyBGVKeEP-25" edge="1">
          <mxGeometry relative="1" as="geometry" />
        </mxCell>
        <mxCell id="xBd6NsXR3ONYyBGVKeEP-8" value="bash: ${filepath}: No such file or directory" style="rounded=1;whiteSpace=wrap;html=1;shadow=0;strokeWidth=1;spacing=6;spacingTop=-4;glass=0;" parent="WIyWlLk6GJQsqaUBKTNV-1" vertex="1">
          <mxGeometry x="330" y="440" width="300" height="60" as="geometry" />
        </mxCell>
        <mxCell id="xBd6NsXR3ONYyBGVKeEP-36" style="edgeStyle=orthogonalEdgeStyle;rounded=0;orthogonalLoop=1;jettySize=auto;html=1;fontFamily=Helvetica;fontSize=12;fontColor=default;fillColor=#f8cecc;strokeColor=#b85450;" parent="WIyWlLk6GJQsqaUBKTNV-1" source="xBd6NsXR3ONYyBGVKeEP-11" target="xBd6NsXR3ONYyBGVKeEP-28" edge="1">
          <mxGeometry relative="1" as="geometry" />
        </mxCell>
        <mxCell id="xBd6NsXR3ONYyBGVKeEP-11" value="Set Exec Status" style="rounded=1;whiteSpace=wrap;html=1;shadow=0;strokeWidth=1;spacing=6;spacingTop=-4;" parent="WIyWlLk6GJQsqaUBKTNV-1" vertex="1">
          <mxGeometry x="420" y="600" width="120" height="60" as="geometry" />
        </mxCell>
        <mxCell id="xBd6NsXR3ONYyBGVKeEP-16" value="Execute Commands" style="rhombus;whiteSpace=wrap;html=1;shadow=0;strokeWidth=1;spacing=6;spacingTop=-4;" parent="WIyWlLk6GJQsqaUBKTNV-1" vertex="1">
          <mxGeometry x="170" y="590" width="100" height="80" as="geometry" />
        </mxCell>
        <mxCell id="xBd6NsXR3ONYyBGVKeEP-37" style="edgeStyle=orthogonalEdgeStyle;rounded=0;orthogonalLoop=1;jettySize=auto;html=1;fontFamily=Helvetica;fontSize=12;fontColor=default;fillColor=#f8cecc;strokeColor=#b85450;" parent="WIyWlLk6GJQsqaUBKTNV-1" source="xBd6NsXR3ONYyBGVKeEP-25" target="xBd6NsXR3ONYyBGVKeEP-28" edge="1">
          <mxGeometry relative="1" as="geometry" />
        </mxCell>
        <mxCell id="xBd6NsXR3ONYyBGVKeEP-25" value="Set Exec Status" style="rounded=1;whiteSpace=wrap;html=1;shadow=0;strokeWidth=1;spacing=6;spacingTop=-4;glass=0;" parent="WIyWlLk6GJQsqaUBKTNV-1" vertex="1">
          <mxGeometry x="420" y="525" width="120" height="60" as="geometry" />
        </mxCell>
        <mxCell id="xBd6NsXR3ONYyBGVKeEP-38" style="edgeStyle=orthogonalEdgeStyle;rounded=0;orthogonalLoop=1;jettySize=auto;html=1;fontFamily=Helvetica;fontSize=12;fontColor=default;" parent="WIyWlLk6GJQsqaUBKTNV-1" source="xBd6NsXR3ONYyBGVKeEP-28" target="xBd6NsXR3ONYyBGVKeEP-5" edge="1">
          <mxGeometry relative="1" as="geometry" />
        </mxCell>
        <mxCell id="xBd6NsXR3ONYyBGVKeEP-28" value="move_next_line" style="rounded=1;whiteSpace=wrap;html=1;fontSize=12;glass=0;strokeWidth=1;shadow=0;" parent="WIyWlLk6GJQsqaUBKTNV-1" vertex="1">
          <mxGeometry x="670" y="770" width="120" height="40" as="geometry" />
        </mxCell>
        <mxCell id="xBd6NsXR3ONYyBGVKeEP-41" value="&lt;h1&gt;Errors (Redirection)&lt;/h1&gt;&lt;p&gt;1. redirection output (permission denied)&lt;/p&gt;&lt;blockquote style=&quot;margin: 0 0 0 40px; border: none; padding: 0px;&quot;&gt;&lt;p&gt;Error Message : &quot;bash: ${filename}: Permission denied&quot;&lt;/p&gt;&lt;p&gt;Exit Status : 1&lt;/p&gt;&lt;p&gt;Example)&lt;/p&gt;&lt;/blockquote&gt;&lt;blockquote style=&quot;margin: 0 0 0 40px; border: none; padding: 0px;&quot;&gt;&lt;blockquote style=&quot;margin: 0 0 0 40px; border: none; padding: 0px;&quot;&gt;&lt;p&gt;bash-3.2$ echo &quot;test&quot; &amp;gt; donttouch&lt;/p&gt;&lt;p&gt;&lt;span style=&quot;background-color: initial;&quot;&gt;bash: donttouch: Permission denied&lt;/span&gt;&lt;/p&gt;&lt;/blockquote&gt;&lt;/blockquote&gt;&lt;p&gt;2. redirection input (no file or directory)&lt;/p&gt;&lt;blockquote style=&quot;margin: 0 0 0 40px; border: none; padding: 0px;&quot;&gt;&lt;p&gt;&lt;span style=&quot;background-color: initial;&quot;&gt;Error Message : &quot;bash: ${filename}: Permission denied&quot;&lt;/span&gt;&lt;/p&gt;&lt;p&gt;Exit Status : 1&lt;/p&gt;&lt;p&gt;Example)&lt;/p&gt;&lt;/blockquote&gt;&lt;blockquote style=&quot;margin: 0 0 0 40px; border: none; padding: 0px;&quot;&gt;&lt;blockquote style=&quot;margin: 0 0 0 40px; border: none; padding: 0px;&quot;&gt;&lt;p&gt;bash-3.2$ &amp;lt;oosdf&lt;/p&gt;&lt;p&gt;&lt;span style=&quot;background-color: initial;&quot;&gt;bash: oosdf: No such file or directory&lt;/span&gt;&lt;/p&gt;&lt;/blockquote&gt;&lt;/blockquote&gt;&lt;p&gt;3. Command not found&lt;/p&gt;&lt;blockquote style=&quot;margin: 0 0 0 40px; border: none; padding: 0px;&quot;&gt;&lt;p style=&quot;border-color: var(--border-color);&quot;&gt;Error Message : &quot;bash: ${command}: command not found&quot;&lt;/p&gt;&lt;p style=&quot;border-color: var(--border-color);&quot;&gt;&lt;span style=&quot;background-color: initial;&quot;&gt;Exit Status : 127&lt;/span&gt;&lt;/p&gt;&lt;span style=&quot;background-color: initial;&quot;&gt;Example)&lt;br&gt;&lt;/span&gt;&lt;/blockquote&gt;&lt;blockquote style=&quot;margin: 0 0 0 40px; border: none; padding: 0px;&quot;&gt;&lt;blockquote style=&quot;margin: 0 0 0 40px; border: none; padding: 0px;&quot;&gt;&lt;span style=&quot;background-color: initial;&quot;&gt;bash-3.2$ fakecommand | echo &quot;output-test&quot; | cat&lt;/span&gt;&lt;/blockquote&gt;&lt;blockquote style=&quot;margin: 0 0 0 40px; border: none; padding: 0px;&quot;&gt;&lt;span style=&quot;background-color: initial;&quot;&gt;bash: fakecommand: command not found&lt;/span&gt;&lt;/blockquote&gt;&lt;blockquote style=&quot;margin: 0 0 0 40px; border: none; padding: 0px;&quot;&gt;&lt;span style=&quot;background-color: initial;&quot;&gt;output-test&lt;/span&gt;&lt;/blockquote&gt;&lt;/blockquote&gt;" style="text;html=1;strokeColor=default;fillColor=none;spacing=5;spacingTop=-20;whiteSpace=wrap;overflow=hidden;rounded=0;fontSize=12;fontFamily=Helvetica;fontColor=default;" parent="WIyWlLk6GJQsqaUBKTNV-1" vertex="1">
          <mxGeometry x="880" y="80" width="420" height="520" as="geometry" />
        </mxCell>
        <mxCell id="xBd6NsXR3ONYyBGVKeEP-43" value="&lt;h1&gt;Errors (Execute)&lt;/h1&gt;&lt;p&gt;&lt;/p&gt;&lt;span style=&quot;background-color: initial;&quot;&gt;1. Command not found&lt;br&gt;&lt;/span&gt;&lt;blockquote style=&quot;margin: 0 0 0 40px; border: none; padding: 0px;&quot;&gt;&lt;span style=&quot;background-color: initial;&quot;&gt;Error Message : &quot;bash: ${command}: command not found&quot;&lt;br&gt;&lt;/span&gt;&lt;span style=&quot;background-color: initial;&quot;&gt;Exit Status : 127&lt;br&gt;&lt;/span&gt;&lt;span style=&quot;background-color: initial;&quot;&gt;Example)&lt;br&gt;&lt;/span&gt;&lt;/blockquote&gt;&lt;blockquote style=&quot;margin: 0 0 0 40px; border: none; padding: 0px;&quot;&gt;&lt;blockquote style=&quot;margin: 0 0 0 40px; border: none; padding: 0px;&quot;&gt;&lt;span style=&quot;background-color: initial;&quot;&gt;bash-3.2$ fakecommand | echo &quot;output-test&quot; | cat&lt;/span&gt;&lt;/blockquote&gt;&lt;blockquote style=&quot;margin: 0 0 0 40px; border: none; padding: 0px;&quot;&gt;&lt;span style=&quot;background-color: initial;&quot;&gt;bash: fakecommand: command not found&lt;/span&gt;&lt;/blockquote&gt;&lt;blockquote style=&quot;margin: 0 0 0 40px; border: none; padding: 0px;&quot;&gt;&lt;span style=&quot;background-color: initial;&quot;&gt;output-test&lt;/span&gt;&lt;/blockquote&gt;&lt;/blockquote&gt;&lt;p&gt;&lt;/p&gt;" style="text;html=1;strokeColor=default;fillColor=none;spacing=5;spacingTop=-20;whiteSpace=wrap;overflow=hidden;rounded=0;fontSize=12;fontFamily=Helvetica;fontColor=default;" parent="WIyWlLk6GJQsqaUBKTNV-1" vertex="1">
          <mxGeometry x="1720" y="80" width="420" height="520" as="geometry" />
        </mxCell>
        <mxCell id="xBd6NsXR3ONYyBGVKeEP-50" value="" style="edgeStyle=orthogonalEdgeStyle;rounded=0;orthogonalLoop=1;jettySize=auto;html=1;fontFamily=Helvetica;fontSize=12;fontColor=default;" parent="WIyWlLk6GJQsqaUBKTNV-1" source="xBd6NsXR3ONYyBGVKeEP-44" target="xBd6NsXR3ONYyBGVKeEP-49" edge="1">
          <mxGeometry relative="1" as="geometry" />
        </mxCell>
        <mxCell id="xBd6NsXR3ONYyBGVKeEP-44" value="Redirection" style="rounded=1;whiteSpace=wrap;html=1;shadow=0;glass=0;strokeColor=default;strokeWidth=1;fontFamily=Helvetica;fontSize=12;fontColor=default;fillColor=default;" parent="WIyWlLk6GJQsqaUBKTNV-1" vertex="1">
          <mxGeometry x="880" y="640" width="120" height="60" as="geometry" />
        </mxCell>
        <mxCell id="xBd6NsXR3ONYyBGVKeEP-45" value="Execute" style="rounded=1;whiteSpace=wrap;html=1;shadow=0;glass=0;strokeColor=default;strokeWidth=1;fontFamily=Helvetica;fontSize=12;fontColor=default;fillColor=default;" parent="WIyWlLk6GJQsqaUBKTNV-1" vertex="1">
          <mxGeometry x="1720" y="640" width="120" height="60" as="geometry" />
        </mxCell>
        <mxCell id="xBd6NsXR3ONYyBGVKeEP-56" value="" style="edgeStyle=orthogonalEdgeStyle;rounded=0;orthogonalLoop=1;jettySize=auto;html=1;fontFamily=Helvetica;fontSize=12;fontColor=default;" parent="WIyWlLk6GJQsqaUBKTNV-1" source="xBd6NsXR3ONYyBGVKeEP-49" target="xBd6NsXR3ONYyBGVKeEP-55" edge="1">
          <mxGeometry relative="1" as="geometry" />
        </mxCell>
        <mxCell id="xBd6NsXR3ONYyBGVKeEP-49" value="Loop&lt;br&gt;&amp;amp; close" style="rhombus;whiteSpace=wrap;html=1;rounded=1;shadow=0;glass=0;strokeWidth=1;" parent="WIyWlLk6GJQsqaUBKTNV-1" vertex="1">
          <mxGeometry x="900" y="770" width="80" height="80" as="geometry" />
        </mxCell>
        <mxCell id="xBd6NsXR3ONYyBGVKeEP-58" value="" style="edgeStyle=orthogonalEdgeStyle;rounded=0;orthogonalLoop=1;jettySize=auto;html=1;fontFamily=Helvetica;fontSize=12;fontColor=default;" parent="WIyWlLk6GJQsqaUBKTNV-1" source="xBd6NsXR3ONYyBGVKeEP-55" target="xBd6NsXR3ONYyBGVKeEP-57" edge="1">
          <mxGeometry relative="1" as="geometry" />
        </mxCell>
        <mxCell id="xBd6NsXR3ONYyBGVKeEP-60" value="" style="edgeStyle=orthogonalEdgeStyle;rounded=0;orthogonalLoop=1;jettySize=auto;html=1;fontFamily=Helvetica;fontSize=12;fontColor=default;" parent="WIyWlLk6GJQsqaUBKTNV-1" source="xBd6NsXR3ONYyBGVKeEP-55" target="xBd6NsXR3ONYyBGVKeEP-59" edge="1">
          <mxGeometry relative="1" as="geometry" />
        </mxCell>
        <mxCell id="xBd6NsXR3ONYyBGVKeEP-55" value="Starts With&lt;br&gt;&#39;&amp;lt;&#39;" style="rhombus;whiteSpace=wrap;html=1;rounded=1;shadow=0;glass=0;strokeWidth=1;" parent="WIyWlLk6GJQsqaUBKTNV-1" vertex="1">
          <mxGeometry x="900" y="930" width="80" height="80" as="geometry" />
        </mxCell>
        <mxCell id="xBd6NsXR3ONYyBGVKeEP-64" value="" style="edgeStyle=orthogonalEdgeStyle;rounded=0;orthogonalLoop=1;jettySize=auto;html=1;fontFamily=Helvetica;fontSize=12;fontColor=default;fillColor=#f8cecc;strokeColor=#b85450;" parent="WIyWlLk6GJQsqaUBKTNV-1" source="xBd6NsXR3ONYyBGVKeEP-57" target="xBd6NsXR3ONYyBGVKeEP-63" edge="1">
          <mxGeometry relative="1" as="geometry" />
        </mxCell>
        <mxCell id="xBd6NsXR3ONYyBGVKeEP-70" style="edgeStyle=orthogonalEdgeStyle;rounded=0;orthogonalLoop=1;jettySize=auto;html=1;fontFamily=Helvetica;fontSize=12;fontColor=default;" parent="WIyWlLk6GJQsqaUBKTNV-1" source="xBd6NsXR3ONYyBGVKeEP-57" target="xBd6NsXR3ONYyBGVKeEP-68" edge="1">
          <mxGeometry relative="1" as="geometry" />
        </mxCell>
        <mxCell id="xBd6NsXR3ONYyBGVKeEP-57" value="Starts With&lt;br&gt;&#39;&amp;gt;&quot;" style="rhombus;whiteSpace=wrap;html=1;rounded=1;shadow=0;glass=0;strokeWidth=1;" parent="WIyWlLk6GJQsqaUBKTNV-1" vertex="1">
          <mxGeometry x="1241" y="930" width="80" height="80" as="geometry" />
        </mxCell>
        <mxCell id="xBd6NsXR3ONYyBGVKeEP-73" style="edgeStyle=orthogonalEdgeStyle;rounded=0;orthogonalLoop=1;jettySize=auto;html=1;entryX=0.5;entryY=0;entryDx=0;entryDy=0;fontFamily=Helvetica;fontSize=12;fontColor=default;" parent="WIyWlLk6GJQsqaUBKTNV-1" source="xBd6NsXR3ONYyBGVKeEP-59" target="xBd6NsXR3ONYyBGVKeEP-65" edge="1">
          <mxGeometry relative="1" as="geometry" />
        </mxCell>
        <mxCell id="xBd6NsXR3ONYyBGVKeEP-82" value="" style="edgeStyle=orthogonalEdgeStyle;rounded=0;orthogonalLoop=1;jettySize=auto;html=1;fontFamily=Helvetica;fontSize=12;fontColor=default;" parent="WIyWlLk6GJQsqaUBKTNV-1" source="xBd6NsXR3ONYyBGVKeEP-59" target="xBd6NsXR3ONYyBGVKeEP-81" edge="1">
          <mxGeometry relative="1" as="geometry" />
        </mxCell>
        <mxCell id="xBd6NsXR3ONYyBGVKeEP-59" value="Is Input&lt;br&gt;&quot;&amp;lt;&quot;" style="rhombus;whiteSpace=wrap;html=1;rounded=1;shadow=0;glass=0;strokeWidth=1;" parent="WIyWlLk6GJQsqaUBKTNV-1" vertex="1">
          <mxGeometry x="900" y="1041" width="80" height="80" as="geometry" />
        </mxCell>
        <mxCell id="xBd6NsXR3ONYyBGVKeEP-63" value="개발 Error&lt;br&gt;(파싱 단계에서 예외처리 안됨)" style="whiteSpace=wrap;html=1;rounded=1;shadow=0;glass=0;strokeWidth=1;" parent="WIyWlLk6GJQsqaUBKTNV-1" vertex="1">
          <mxGeometry x="1481" y="1290" width="139" height="60" as="geometry" />
        </mxCell>
        <mxCell id="xBd6NsXR3ONYyBGVKeEP-89" value="" style="edgeStyle=orthogonalEdgeStyle;rounded=0;orthogonalLoop=1;jettySize=auto;html=1;fontFamily=Helvetica;fontSize=12;fontColor=default;" parent="WIyWlLk6GJQsqaUBKTNV-1" source="xBd6NsXR3ONYyBGVKeEP-65" target="xBd6NsXR3ONYyBGVKeEP-88" edge="1">
          <mxGeometry relative="1" as="geometry" />
        </mxCell>
        <mxCell id="xBd6NsXR3ONYyBGVKeEP-65" value="Is heredoc&lt;br&gt;&quot;&amp;lt;&amp;lt;&quot;" style="rhombus;whiteSpace=wrap;html=1;rounded=1;shadow=0;glass=0;strokeWidth=1;" parent="WIyWlLk6GJQsqaUBKTNV-1" vertex="1">
          <mxGeometry x="1071" y="1130" width="80" height="80" as="geometry" />
        </mxCell>
        <mxCell id="xBd6NsXR3ONYyBGVKeEP-74" style="edgeStyle=orthogonalEdgeStyle;rounded=0;orthogonalLoop=1;jettySize=auto;html=1;entryX=0.5;entryY=0;entryDx=0;entryDy=0;fontFamily=Helvetica;fontSize=12;fontColor=default;" parent="WIyWlLk6GJQsqaUBKTNV-1" source="xBd6NsXR3ONYyBGVKeEP-68" target="xBd6NsXR3ONYyBGVKeEP-69" edge="1">
          <mxGeometry relative="1" as="geometry" />
        </mxCell>
        <mxCell id="xBd6NsXR3ONYyBGVKeEP-86" style="edgeStyle=orthogonalEdgeStyle;rounded=0;orthogonalLoop=1;jettySize=auto;html=1;fontFamily=Helvetica;fontSize=12;fontColor=default;" parent="WIyWlLk6GJQsqaUBKTNV-1" source="xBd6NsXR3ONYyBGVKeEP-68" target="xBd6NsXR3ONYyBGVKeEP-83" edge="1">
          <mxGeometry relative="1" as="geometry" />
        </mxCell>
        <mxCell id="xBd6NsXR3ONYyBGVKeEP-68" value="Is output&lt;br&gt;&quot;&amp;gt;&quot;" style="rhombus;whiteSpace=wrap;html=1;rounded=1;shadow=0;glass=0;strokeWidth=1;" parent="WIyWlLk6GJQsqaUBKTNV-1" vertex="1">
          <mxGeometry x="1241" y="1040" width="80" height="80" as="geometry" />
        </mxCell>
        <mxCell id="xBd6NsXR3ONYyBGVKeEP-78" style="edgeStyle=orthogonalEdgeStyle;rounded=0;orthogonalLoop=1;jettySize=auto;html=1;fontFamily=Helvetica;fontSize=12;fontColor=default;exitX=1;exitY=0.5;exitDx=0;exitDy=0;fillColor=#f8cecc;strokeColor=#b85450;" parent="WIyWlLk6GJQsqaUBKTNV-1" source="xBd6NsXR3ONYyBGVKeEP-69" target="xBd6NsXR3ONYyBGVKeEP-63" edge="1">
          <mxGeometry relative="1" as="geometry" />
        </mxCell>
        <mxCell id="xBd6NsXR3ONYyBGVKeEP-85" style="edgeStyle=orthogonalEdgeStyle;rounded=0;orthogonalLoop=1;jettySize=auto;html=1;fontFamily=Helvetica;fontSize=12;fontColor=default;" parent="WIyWlLk6GJQsqaUBKTNV-1" source="xBd6NsXR3ONYyBGVKeEP-69" target="xBd6NsXR3ONYyBGVKeEP-84" edge="1">
          <mxGeometry relative="1" as="geometry" />
        </mxCell>
        <mxCell id="xBd6NsXR3ONYyBGVKeEP-69" value="Is append&lt;br&gt;&quot;&amp;gt;&amp;gt;&quot;" style="rhombus;whiteSpace=wrap;html=1;rounded=1;shadow=0;glass=0;strokeWidth=1;" parent="WIyWlLk6GJQsqaUBKTNV-1" vertex="1">
          <mxGeometry x="1380" y="1130" width="80" height="80" as="geometry" />
        </mxCell>
        <mxCell id="xBd6NsXR3ONYyBGVKeEP-91" value="" style="edgeStyle=orthogonalEdgeStyle;rounded=0;orthogonalLoop=1;jettySize=auto;html=1;fontFamily=Helvetica;fontSize=12;fontColor=default;" parent="WIyWlLk6GJQsqaUBKTNV-1" source="xBd6NsXR3ONYyBGVKeEP-81" target="xBd6NsXR3ONYyBGVKeEP-90" edge="1">
          <mxGeometry relative="1" as="geometry" />
        </mxCell>
        <mxCell id="xBd6NsXR3ONYyBGVKeEP-109" style="edgeStyle=orthogonalEdgeStyle;rounded=0;orthogonalLoop=1;jettySize=auto;html=1;fontFamily=Helvetica;fontSize=12;fontColor=default;fillColor=#f8cecc;strokeColor=#b85450;" parent="WIyWlLk6GJQsqaUBKTNV-1" source="xBd6NsXR3ONYyBGVKeEP-81" target="xBd6NsXR3ONYyBGVKeEP-100" edge="1">
          <mxGeometry relative="1" as="geometry">
            <Array as="points">
              <mxPoint x="1000" y="1460" />
              <mxPoint x="1000" y="1530" />
              <mxPoint x="1551" y="1530" />
            </Array>
          </mxGeometry>
        </mxCell>
        <mxCell id="xBd6NsXR3ONYyBGVKeEP-81" value="Open&lt;br&gt;(readonly)" style="rhombus;whiteSpace=wrap;html=1;rounded=1;shadow=0;glass=0;strokeWidth=1;" parent="WIyWlLk6GJQsqaUBKTNV-1" vertex="1">
          <mxGeometry x="900" y="1420" width="80" height="80" as="geometry" />
        </mxCell>
        <mxCell id="xBd6NsXR3ONYyBGVKeEP-92" style="edgeStyle=orthogonalEdgeStyle;rounded=0;orthogonalLoop=1;jettySize=auto;html=1;fontFamily=Helvetica;fontSize=12;fontColor=default;" parent="WIyWlLk6GJQsqaUBKTNV-1" source="xBd6NsXR3ONYyBGVKeEP-83" target="xBd6NsXR3ONYyBGVKeEP-90" edge="1">
          <mxGeometry relative="1" as="geometry">
            <Array as="points">
              <mxPoint x="1281" y="1580" />
              <mxPoint x="940" y="1580" />
            </Array>
          </mxGeometry>
        </mxCell>
        <mxCell id="xBd6NsXR3ONYyBGVKeEP-108" style="edgeStyle=orthogonalEdgeStyle;rounded=0;orthogonalLoop=1;jettySize=auto;html=1;fontFamily=Helvetica;fontSize=12;fontColor=default;fillColor=#f8cecc;strokeColor=#b85450;" parent="WIyWlLk6GJQsqaUBKTNV-1" source="xBd6NsXR3ONYyBGVKeEP-83" target="xBd6NsXR3ONYyBGVKeEP-100" edge="1">
          <mxGeometry relative="1" as="geometry">
            <Array as="points">
              <mxPoint x="1360" y="1461" />
              <mxPoint x="1360" y="1530" />
              <mxPoint x="1551" y="1530" />
            </Array>
          </mxGeometry>
        </mxCell>
        <mxCell id="xBd6NsXR3ONYyBGVKeEP-83" value="Open&lt;br&gt;(write&amp;amp;create)&lt;br&gt;[0655]" style="rhombus;whiteSpace=wrap;html=1;rounded=1;shadow=0;glass=0;strokeWidth=1;" parent="WIyWlLk6GJQsqaUBKTNV-1" vertex="1">
          <mxGeometry x="1241" y="1421" width="80" height="80" as="geometry" />
        </mxCell>
        <mxCell id="xBd6NsXR3ONYyBGVKeEP-93" style="edgeStyle=orthogonalEdgeStyle;rounded=0;orthogonalLoop=1;jettySize=auto;html=1;fontFamily=Helvetica;fontSize=12;fontColor=default;" parent="WIyWlLk6GJQsqaUBKTNV-1" source="xBd6NsXR3ONYyBGVKeEP-84" target="xBd6NsXR3ONYyBGVKeEP-90" edge="1">
          <mxGeometry relative="1" as="geometry">
            <Array as="points">
              <mxPoint x="1420" y="1580" />
              <mxPoint x="940" y="1580" />
            </Array>
          </mxGeometry>
        </mxCell>
        <mxCell id="xBd6NsXR3ONYyBGVKeEP-103" style="edgeStyle=orthogonalEdgeStyle;rounded=0;orthogonalLoop=1;jettySize=auto;html=1;fontFamily=Helvetica;fontSize=12;fontColor=default;fillColor=#f8cecc;strokeColor=#b85450;" parent="WIyWlLk6GJQsqaUBKTNV-1" source="xBd6NsXR3ONYyBGVKeEP-84" target="xBd6NsXR3ONYyBGVKeEP-100" edge="1">
          <mxGeometry relative="1" as="geometry" />
        </mxCell>
        <mxCell id="xBd6NsXR3ONYyBGVKeEP-84" value="Open&lt;br&gt;(write&lt;br&gt;&amp;amp;append&lt;br&gt;&amp;amp;create)&lt;br&gt;[0655]" style="rhombus;whiteSpace=wrap;html=1;rounded=1;shadow=0;glass=0;strokeWidth=1;" parent="WIyWlLk6GJQsqaUBKTNV-1" vertex="1">
          <mxGeometry x="1370" y="1410" width="100" height="100" as="geometry" />
        </mxCell>
        <mxCell id="xBd6NsXR3ONYyBGVKeEP-94" style="edgeStyle=orthogonalEdgeStyle;rounded=0;orthogonalLoop=1;jettySize=auto;html=1;fontFamily=Helvetica;fontSize=12;fontColor=default;" parent="WIyWlLk6GJQsqaUBKTNV-1" source="xBd6NsXR3ONYyBGVKeEP-88" target="xBd6NsXR3ONYyBGVKeEP-90" edge="1">
          <mxGeometry relative="1" as="geometry">
            <Array as="points">
              <mxPoint x="1111" y="1580" />
              <mxPoint x="940" y="1580" />
            </Array>
          </mxGeometry>
        </mxCell>
        <mxCell id="xBd6NsXR3ONYyBGVKeEP-107" style="edgeStyle=orthogonalEdgeStyle;rounded=0;orthogonalLoop=1;jettySize=auto;html=1;fontFamily=Helvetica;fontSize=12;fontColor=default;fillColor=#f8cecc;strokeColor=#b85450;" parent="WIyWlLk6GJQsqaUBKTNV-1" source="xBd6NsXR3ONYyBGVKeEP-88" target="xBd6NsXR3ONYyBGVKeEP-100" edge="1">
          <mxGeometry relative="1" as="geometry">
            <Array as="points">
              <mxPoint x="1200" y="1460" />
              <mxPoint x="1200" y="1530" />
              <mxPoint x="1551" y="1530" />
            </Array>
          </mxGeometry>
        </mxCell>
        <mxCell id="xBd6NsXR3ONYyBGVKeEP-88" value="HEREDOCS&lt;br&gt;????&lt;br&gt;interrupts?" style="ellipse;shape=cloud;whiteSpace=wrap;html=1;rounded=1;shadow=0;glass=0;strokeWidth=1;" parent="WIyWlLk6GJQsqaUBKTNV-1" vertex="1">
          <mxGeometry x="1051" y="1420" width="120" height="80" as="geometry" />
        </mxCell>
        <mxCell id="xBd6NsXR3ONYyBGVKeEP-113" style="edgeStyle=orthogonalEdgeStyle;rounded=0;orthogonalLoop=1;jettySize=auto;html=1;fontFamily=Helvetica;fontSize=12;fontColor=default;" parent="WIyWlLk6GJQsqaUBKTNV-1" source="xBd6NsXR3ONYyBGVKeEP-100" target="xBd6NsXR3ONYyBGVKeEP-112" edge="1">
          <mxGeometry relative="1" as="geometry" />
        </mxCell>
        <mxCell id="xBd6NsXR3ONYyBGVKeEP-100" value="Error Opening File" style="rounded=1;whiteSpace=wrap;html=1;shadow=0;glass=0;strokeColor=default;strokeWidth=1;fontFamily=Helvetica;fontSize=12;fontColor=default;fillColor=default;" parent="WIyWlLk6GJQsqaUBKTNV-1" vertex="1">
          <mxGeometry x="1481" y="1680" width="139" height="60" as="geometry" />
        </mxCell>
        <mxCell id="xBd6NsXR3ONYyBGVKeEP-105" value="" style="swimlane;startSize=0;rounded=1;shadow=0;glass=0;strokeColor=default;strokeWidth=1;fontFamily=Helvetica;fontSize=12;fontColor=default;fillColor=default;html=1;" parent="WIyWlLk6GJQsqaUBKTNV-1" vertex="1">
          <mxGeometry x="871" y="890" width="779" height="860" as="geometry" />
        </mxCell>
        <mxCell id="xBd6NsXR3ONYyBGVKeEP-90" value="Return fd" style="whiteSpace=wrap;html=1;rounded=1;shadow=0;glass=0;strokeWidth=1;" parent="xBd6NsXR3ONYyBGVKeEP-105" vertex="1">
          <mxGeometry x="9" y="790" width="120" height="60" as="geometry" />
        </mxCell>
        <mxCell id="xBd6NsXR3ONYyBGVKeEP-116" style="edgeStyle=orthogonalEdgeStyle;rounded=0;orthogonalLoop=1;jettySize=auto;html=1;entryX=0;entryY=0.5;entryDx=0;entryDy=0;fontFamily=Helvetica;fontSize=12;fontColor=default;" parent="WIyWlLk6GJQsqaUBKTNV-1" source="xBd6NsXR3ONYyBGVKeEP-110" target="xBd6NsXR3ONYyBGVKeEP-49" edge="1">
          <mxGeometry relative="1" as="geometry">
            <Array as="points">
              <mxPoint x="860" y="1820" />
              <mxPoint x="860" y="810" />
            </Array>
          </mxGeometry>
        </mxCell>
        <mxCell id="UBLVTWBUNCwjVFx4ysUD-1" value="" style="edgeStyle=orthogonalEdgeStyle;rounded=0;orthogonalLoop=1;jettySize=auto;html=1;" edge="1" parent="WIyWlLk6GJQsqaUBKTNV-1" source="xBd6NsXR3ONYyBGVKeEP-110" target="UBLVTWBUNCwjVFx4ysUD-0">
          <mxGeometry relative="1" as="geometry" />
        </mxCell>
        <mxCell id="xBd6NsXR3ONYyBGVKeEP-110" value="Set Fd&lt;br&gt;&amp;amp; Loop" style="rounded=1;whiteSpace=wrap;html=1;shadow=0;glass=0;strokeColor=default;strokeWidth=1;fontFamily=Helvetica;fontSize=12;fontColor=default;fillColor=default;" parent="WIyWlLk6GJQsqaUBKTNV-1" vertex="1">
          <mxGeometry x="880" y="1790" width="120" height="60" as="geometry" />
        </mxCell>
        <mxCell id="xBd6NsXR3ONYyBGVKeEP-111" style="edgeStyle=orthogonalEdgeStyle;rounded=0;orthogonalLoop=1;jettySize=auto;html=1;fontFamily=Helvetica;fontSize=12;fontColor=default;" parent="WIyWlLk6GJQsqaUBKTNV-1" source="xBd6NsXR3ONYyBGVKeEP-90" target="xBd6NsXR3ONYyBGVKeEP-110" edge="1">
          <mxGeometry relative="1" as="geometry" />
        </mxCell>
        <mxCell id="xBd6NsXR3ONYyBGVKeEP-112" value="Error" style="rounded=1;whiteSpace=wrap;html=1;shadow=0;glass=0;strokeColor=default;strokeWidth=1;fontFamily=Helvetica;fontSize=12;fontColor=default;fillColor=default;" parent="WIyWlLk6GJQsqaUBKTNV-1" vertex="1">
          <mxGeometry x="1491" y="1800" width="120" height="60" as="geometry" />
        </mxCell>
        <mxCell id="xBd6NsXR3ONYyBGVKeEP-79" style="edgeStyle=orthogonalEdgeStyle;rounded=0;orthogonalLoop=1;jettySize=auto;html=1;fontFamily=Helvetica;fontSize=12;fontColor=default;fillColor=#f8cecc;strokeColor=#b85450;entryX=0.5;entryY=0;entryDx=0;entryDy=0;exitX=1;exitY=0.5;exitDx=0;exitDy=0;" parent="WIyWlLk6GJQsqaUBKTNV-1" source="xBd6NsXR3ONYyBGVKeEP-65" target="xBd6NsXR3ONYyBGVKeEP-63" edge="1">
          <mxGeometry relative="1" as="geometry">
            <mxPoint x="1171" y="1140" as="sourcePoint" />
            <mxPoint x="1586" y="1260" as="targetPoint" />
            <Array as="points">
              <mxPoint x="1220" y="1170" />
              <mxPoint x="1220" y="1210" />
              <mxPoint x="1551" y="1210" />
            </Array>
          </mxGeometry>
        </mxCell>
        <mxCell id="UBLVTWBUNCwjVFx4ysUD-0" value="Exit" style="whiteSpace=wrap;html=1;rounded=1;shadow=0;glass=0;strokeWidth=1;" vertex="1" parent="WIyWlLk6GJQsqaUBKTNV-1">
          <mxGeometry x="880" y="1930" width="120" height="60" as="geometry" />
        </mxCell>
      </root>
    </mxGraphModel>
  </diagram>
</mxfile>
